<svg id="レイヤー_1" data-name="レイヤー 1" xmlns="http://www.w3.org/2000/svg" xmlns:xlink="http://www.w3.org/1999/xlink" viewBox="0 0 161.77 168.36"><defs><style>.cls-1{fill:#231815;}.cls-1,.cls-2{stroke:#231815;stroke-miterlimit:10;}.cls-2{fill:none;}</style><symbol id="ho-ri-" data-name="ho-ri-" viewBox="0 0 132.91 138.33"><path class="cls-1" d="M32.3,71.52v.71a2.5,2.5,0,0,0,5,0v-.71a2.5,2.5,0,0,0-5,0Z"/><path class="cls-1" d="M130.88,40.42C125.16,26.94,112.19,15.7,99.46,9.06S69.58-2.21,55.29,2.31c-14.61,4.63-20.91,19-24.21,32.83-2,.76-4,1.6-5.88,2.55h0C15.52,42.42,7.39,49.59,8,59.5c.14,2.42.35,5.27.66,7.6-8.74,9.63-10.5,25.31-4.94,37.59,9.59,21.17,33.59,32.75,56,33.14,3.22.06,20-5,0-5-19.29,0-39.57-9.49-49.57-26.62C5.62,98.54,3.73,89.45,6.45,80.85s9.37-15.48,18.35-17.2c3.15-.61,1.82-5.43-1.33-4.83a26.71,26.71,0,0,0-11.13,4.87c.15-.87.3-1.82.45-2.86C14.75,47.57,29.25,40,42.05,37c14.51-3.36,29.87.87,42.63,7.91,23.28,12.83,49,42.54,30.48,69.35-8.07,11.68,2.55,5.2,4.32,2.53a39,39,0,0,0,6.85-21.87,38.29,38.29,0,0,0-.23-4.14,2.36,2.36,0,0,0,.09-.77,91.34,91.34,0,0,1,3.27-26.62C131.46,55.65,134.17,48.19,130.88,40.42ZM122.74,70c-.41,2-.74,4-1,6.08l-.59-1.6C113.78,59.74,99.58,47.06,85.7,39.77,71.62,32.37,55,28.41,39.31,32.52c-.84.22-1.7.46-2.57.72C40.19,20.72,46.52,8.58,60.63,6.15c13.59-2.34,28.66,2.48,40.23,9.43a71.14,71.14,0,0,1,15.19,12.25c4.8,5.09,11.14,12.36,11.53,19.68S124.21,62.81,122.74,70Z"/><path class="cls-2" d="M121.16,74.53"/><path class="cls-1" d="M64.61,84l-.71.15c-6,12.31,3.32,28-1.35,40.6a2,2,0,0,1-3.78-.69V84.65A26.54,26.54,0,0,1,49.13,83c-3-1.11-1.7-5.94,1.32-4.82a22.31,22.31,0,0,0,12.83,1C66.42,78.45,67.75,83.27,64.61,84Z"/><line class="cls-1" x1="58.77" y1="84.56" x2="58.77" y2="84.64"/><line class="cls-1" x1="58.77" y1="84.44" x2="58.77" y2="84.56"/><path class="cls-1" d="M63.91,84.09"/><path class="cls-1" d="M90.79,80l-.21.64a2.52,2.52,0,0,0,1.74,3.08A2.56,2.56,0,0,0,95.4,82l.21-.65a2.52,2.52,0,0,0-1.75-3.07A2.55,2.55,0,0,0,90.79,80Z"/><path class="cls-2" d="M25.29,37.63l-.09.06"/></symbol></defs><title>アートボード 4</title><use width="132.92" height="138.33" transform="translate(12.36 16.8)" xlink:href="#ho-ri-"/></svg>